# xmcd
#
# Track frame offsets:
#	150
#	12357
#	28508
#	47448
#	62784
#	81979
#	95681
#	110849
#	128873
#	144904
#	161373
#	178300
#	192913
#	208547
#	224800
#	239820
#	257787
#	270218
#	283613
#	296024
#	313345
#
# Disc length: 4388 seconds
#
# Revision: 0
# Processed by: cddbd v1.5.2PL0 Copyright (c) Steve Scherf et al.
# Submitted via: EasyCDDAExtractor 11.5.0.1
#
DISCID=49112215
DTITLE=Various Artist - NCT 105
DYEAR=2008
DGENRE=Country
TTITLE0=Garth Brooks and Huey Lewis - Workin' For A Livin'
TTITLE1=Carrie Underwood - All-American Girl
TTITLE2=Kenny Chesney duet with George Strait - Shiftwork
TTITLE3=Joe Nichols - It Ain't No Crime
TTITLE4=Tim McGraw - Suspicions
TTITLE5=Miranda Lambert - Gunpowder and Lead
TTITLE6=Jason Michael Carroll - I Can Sleep When I'm Dead
TTITLE7=Trisha Yearwood - This Is Me You're Talking To
TTITLE8=Jypsi - I Don't Love You Like That
TTITLE9=Rissi Palmer - Hold On To Me
TTITLE10=Josh Turner ft. Trisha Yearwood - Another Try
TTITLE11=Rockie Lynne - I Can't Believe It's Me
TTITLE12=Carter's Chord - Young Love
TTITLE13=Rio Grand - The Storm Inside Of Me
TTITLE14=The Road Hammers - I Don't Know When To Quit
TTITLE15=Kevin Fowler - Best Mistake I Ever Made
TTITLE16=Bryan Fontenot - Trailer Park Pulp Fiction
TTITLE17=Miko Marks - The Son My Daddy Never Had
TTITLE18=Hadassah - Big Man
TTITLE19=The Bellamy Brothers - Drug Problem
TTITLE20=Eli Young Band - When It Rains
EXTD=
EXTT0=
EXTT1=
EXTT2=
EXTT3=
EXTT4=
EXTT5=
EXTT6=
EXTT7=
EXTT8=
EXTT9=
EXTT10=
EXTT11=
EXTT12=
EXTT13=
EXTT14=
EXTT15=
EXTT16=
EXTT17=
EXTT18=
EXTT19=
EXTT20=
PLAYORDER=
